<?xml version="1.0" standalone="no"?>
<!DOCTYPE svg PUBLIC "-//W3C//DTD SVG 20010904//EN"
 "http://www.w3.org/TR/2001/REC-SVG-20010904/DTD/svg10.dtd">
<svg version="1.0" xmlns="http://www.w3.org/2000/svg"
 width="256.000000pt" height="256.000000pt" viewBox="0 0 256.000000 256.000000"
 preserveAspectRatio="xMidYMid meet">
<metadata>
Created by potrace 1.11, written by Peter Selinger 2001-2013
</metadata>
<g transform="translate(0.000000,256.000000) scale(0.100000,-0.100000)"
fill="#000000" stroke="none">
<path d="M1190 2148 c0 -6 -7 -8 -15 -4 -8 3 -14 2 -14 -2 3 -21 -16 -51 -37
-61 -20 -9 -24 -8 -18 1 6 9 3 9 -9 -1 -14 -11 -17 -11 -17 0 0 9 -3 10 -8 4
-6 -9 -21 -11 -47 -5 -28 6 -81 4 -92 -3 -6 -4 -14 -3 -18 3 -5 8 -10 8 -20 0
-10 -8 -15 -8 -20 0 -5 8 -10 8 -20 0 -10 -8 -15 -8 -20 0 -5 8 -11 7 -22 -1
-12 -10 -16 -10 -24 2 -6 9 -9 10 -9 2 0 -9 -7 -10 -25 -3 -15 6 -26 6 -30 0
-4 -6 -14 -6 -27 1 -18 10 -20 9 -15 -5 4 -9 2 -16 -3 -16 -6 0 -10 4 -10 8 0
4 -16 6 -35 4 -19 -2 -33 -8 -30 -12 6 -10 -15 -7 -34 4 -9 6 -12 5 -7 -2 3
-6 -6 -13 -24 -17 -16 -4 -30 -11 -30 -15 0 -5 -6 -7 -14 -4 -8 3 -17 0 -21
-5 -3 -6 -11 -8 -17 -5 -6 4 -8 2 -4 -4 3 -6 -3 -14 -15 -17 -24 -8 -129 -110
-129 -126 0 -6 -5 -7 -12 -3 -6 4 -8 3 -5 -3 4 -5 -2 -19 -11 -29 -10 -10 -19
-23 -20 -29 -11 -45 -15 -54 -22 -50 -4 3 -8 -1 -7 -8 1 -33 -4 -58 -10 -54
-5 3 -9 -13 -10 -34 -2 -22 -8 -49 -14 -61 -9 -16 -8 -19 3 -12 10 6 11 5 2
-7 -6 -8 -10 -31 -10 -52 1 -20 -3 -37 -7 -37 -5 0 -6 -4 -3 -8 3 -5 6 -30 7
-58 1 -27 7 -55 13 -63 8 -11 8 -13 0 -8 -7 4 -12 -2 -12 -18 0 -14 5 -25 10
-25 6 0 8 -7 5 -15 -4 -8 -3 -17 2 -19 4 -3 7 -19 6 -35 -1 -17 2 -28 7 -25 4
3 8 -3 8 -14 0 -10 3 -22 7 -26 4 -3 8 -12 9 -19 4 -20 29 -82 35 -87 3 -3 12
-20 20 -37 8 -18 18 -33 22 -33 5 0 5 -4 2 -10 -3 -5 1 -10 10 -10 9 0 13 -5
9 -11 -3 -6 0 -15 7 -20 8 -4 14 -12 14 -18 0 -5 15 -23 32 -40 18 -17 31 -31
28 -31 -3 0 11 -16 31 -35 19 -19 40 -35 45 -35 6 0 7 -4 4 -10 -3 -5 1 -10 9
-10 8 0 20 -8 25 -17 6 -10 11 -14 11 -9 0 5 11 -3 25 -18 14 -15 30 -24 35
-21 6 3 10 1 10 -5 0 -14 168 -93 180 -85 6 4 10 1 10 -5 0 -6 4 -8 10 -5 6 3
10 2 10 -2 0 -5 12 -10 27 -11 15 -1 30 -7 34 -13 5 -8 9 -8 14 1 5 8 12 7 26
-6 13 -12 19 -13 19 -4 0 9 4 9 13 3 6 -6 20 -9 30 -8 9 2 17 -2 17 -8 0 -9 2
-9 8 0 6 10 14 9 35 -2 18 -9 29 -10 33 -3 4 6 10 5 15 -3 5 -8 9 -9 9 -4 0
10 58 12 76 4 5 -3 173 -5 373 -4 349 1 364 1 377 20 8 11 18 19 22 18 4 -2 7
2 7 8 0 7 11 13 25 14 39 5 52 9 69 23 9 7 19 12 24 12 13 -1 71 34 90 54 9
10 17 15 17 11 0 -11 88 82 101 107 5 10 14 16 20 13 5 -4 8 -3 7 2 -1 4 8 29
20 55 37 79 44 101 56 163 1 6 6 16 10 24 7 11 6 12 -5 6 -12 -8 -12 -6 0 8 9
12 10 17 2 17 -7 0 -9 5 -4 13 11 18 12 36 2 43 -6 4 -6 11 1 19 8 9 8 15 0
20 -7 4 -7 13 1 27 7 13 7 18 1 14 -6 -4 -11 2 -11 11 1 39 -9 75 -21 83 -10
6 -9 9 1 13 11 4 11 6 1 6 -7 1 -10 6 -7 11 3 6 2 10 -4 10 -5 0 -15 16 -22
35 -7 19 -22 38 -32 41 -16 5 -17 8 -6 15 11 7 11 9 -3 9 -9 0 -21 6 -25 13
-4 8 -24 22 -43 33 -19 10 -37 22 -40 25 -11 13 -73 38 -81 33 -5 -3 -9 -1 -9
4 0 5 -12 12 -27 15 -16 3 -44 8 -63 12 -19 4 -38 12 -42 18 -6 9 -8 8 -8 -1
0 -9 -8 -9 -31 4 -17 8 -28 11 -25 5 10 -15 -7 -14 -22 1 -9 9 -12 9 -12 -2 0
-9 -5 -8 -20 5 -11 10 -20 14 -20 9 0 -5 -9 -10 -20 -10 -11 0 -20 3 -20 7 0
3 -10 6 -22 6 -101 1 -119 4 -112 16 6 9 5 9 -8 0 -8 -7 -18 -10 -21 -7 -3 4
-23 8 -44 10 -36 3 -78 11 -78 14 0 1 -11 4 -25 6 -14 3 -26 9 -28 14 -2 6
-10 10 -17 10 -7 0 -20 11 -29 25 -9 14 -14 25 -10 25 4 0 1 7 -6 15 -10 12
-10 15 1 15 11 0 11 2 -1 10 -12 8 -12 10 5 11 11 0 14 3 7 6 -16 6 25 83 45
83 8 0 11 4 8 10 -3 5 6 12 20 16 14 3 25 11 25 18 0 7 4 6 9 -3 6 -9 10 -10
16 -2 3 7 15 9 26 6 12 -4 19 -2 19 7 0 10 3 9 10 -2 9 -13 10 -13 10 0 0 13
1 13 10 0 7 -11 10 -11 10 -2 0 10 5 10 20 2 14 -8 20 -8 20 0 0 8 6 8 20 0
14 -8 20 -8 20 0 0 8 6 8 20 0 14 -8 20 -8 20 0 0 8 6 8 20 0 14 -8 20 -8 20
0 0 8 6 8 20 0 14 -8 20 -8 20 0 0 8 6 8 20 0 14 -8 20 -8 20 0 0 8 6 8 20 0
11 -6 20 -7 20 -3 0 9 67 9 76 0 4 -4 14 -2 23 3 10 5 23 5 31 0 7 -4 24 -4
37 1 16 6 23 5 23 -4 0 -7 3 -8 8 -2 4 6 26 10 50 11 41 1 78 27 66 46 -3 5
-1 8 4 8 6 0 8 9 5 20 -3 11 -10 20 -15 20 -5 0 -6 5 -3 10 3 6 -2 10 -12 10
-11 0 -24 5 -31 12 -9 9 -12 9 -12 -1 0 -7 -5 -9 -12 -4 -18 11 -42 10 -50 -2
-5 -6 -8 -6 -8 2 0 7 -9 10 -22 7 -13 -3 -29 -5 -35 -5 -15 1 -97 2 -115 1 -7
-1 -25 1 -40 3 -16 2 -28 0 -28 -5 0 -5 -6 -6 -12 -1 -17 10 -78 10 -78 0 0
-5 -6 -5 -12 0 -18 11 -42 10 -50 -2 -5 -7 -8 -7 -8 0 0 16 -147 10 -167 -6
-11 -9 -14 -10 -9 -1 4 6 2 12 -3 12 -6 0 -11 -5 -11 -11 0 -5 -4 -7 -10 -4
-5 3 -28 -3 -50 -14 -22 -10 -37 -14 -34 -8 3 7 -4 1 -16 -13 -12 -14 -19 -18
-15 -10 4 8 -1 6 -9 -5 -15 -18 -17 -18 -33 -2 -10 9 -12 17 -6 17 13 0 6 73
-8 78 -5 2 -9 10 -9 18 0 9 -4 13 -9 10 -5 -4 -11 -1 -13 5 -5 14 -78 21 -78
7z m-254 -203 c33 -1 51 2 47 8 -4 6 -1 7 7 2 17 -11 121 -14 114 -4 -3 5 2 6
10 3 19 -7 18 -2 21 -91 1 -46 -2 -70 -8 -66 -6 4 -7 1 -1 -8 13 -21 14 -120
1 -112 -6 4 -7 1 -1 -8 12 -20 13 -359 1 -352 -6 4 -7 1 -1 -8 13 -21 14 -120
1 -112 -6 4 -7 1 -1 -8 12 -20 13 -359 1 -352 -6 4 -7 1 -1 -8 4 -8 9 -38 10
-67 1 -44 -2 -54 -19 -64 -16 -8 -22 -8 -25 2 -3 9 -6 9 -13 -1 -7 -12 -9 -11
-9 1 0 13 -1 13 -10 0 -8 -12 -10 -12 -10 -1 0 11 -3 11 -17 0 -11 -10 -14
-10 -9 -1 5 8 0 12 -18 12 -14 0 -28 5 -31 10 -5 8 -11 8 -20 0 -10 -8 -15 -8
-20 0 -4 6 -14 9 -22 6 -8 -3 -11 -1 -8 4 4 6 -7 10 -25 10 -21 0 -29 4 -24
12 4 7 3 8 -4 4 -6 -4 -24 1 -39 11 -15 10 -28 17 -30 16 -9 -8 -23 -1 -17 9
4 6 3 8 -3 5 -6 -4 -16 0 -23 8 -7 8 -16 12 -22 9 -5 -3 -17 3 -27 15 -10 11
-21 18 -25 14 -3 -3 -6 -1 -6 6 0 7 -4 10 -8 7 -5 -3 -15 4 -22 15 -8 10 -20
19 -27 19 -7 0 -22 14 -32 31 -10 17 -23 31 -27 31 -5 0 -8 4 -7 9 2 5 -3 9
-11 9 -8 0 -18 9 -21 20 -3 11 -11 20 -16 20 -6 0 -7 5 -4 10 3 6 2 10 -4 10
-14 0 -42 55 -33 65 4 5 2 5 -5 1 -10 -6 -19 9 -24 39 -1 6 -9 15 -18 22 -14
11 -14 12 -1 13 12 0 12 2 2 9 -7 4 -15 14 -16 22 -2 8 -6 22 -11 32 -4 9 -4
24 -1 33 4 10 2 13 -6 8 -8 -5 -9 -2 -5 9 3 10 3 17 -1 17 -4 0 -8 21 -10 48
-2 26 -4 56 -6 67 -2 11 1 28 6 39 6 10 6 16 1 13 -5 -3 -9 10 -9 28 1 19 4
35 7 35 3 0 5 12 3 27 -1 15 1 32 5 38 3 5 8 24 10 40 2 17 8 33 15 37 6 4 8
8 3 8 -4 0 -1 14 8 30 9 17 12 30 8 30 -5 0 0 5 10 11 9 6 15 14 13 18 -3 4 8
22 24 40 17 18 30 37 30 42 0 6 4 8 9 4 5 -3 16 2 24 10 9 8 20 15 26 15 6 0
11 5 11 11 0 5 5 7 10 4 6 -3 10 -3 10 2 0 4 11 13 25 20 14 6 22 7 19 1 -4
-6 0 -6 12 0 37 18 84 31 78 20 -4 -6 0 -6 13 1 11 5 50 9 86 7 43 -2 64 0 60
7 -4 6 -1 7 7 2 7 -4 37 -9 66 -10z m394 -346 c0 -5 4 -8 9 -4 5 3 16 -1 24
-9 19 -20 79 -44 95 -39 6 3 12 1 12 -4 0 -5 15 -10 32 -11 18 -2 37 -7 42
-12 6 -6 14 -5 23 1 7 7 13 7 13 2 0 -5 12 -10 28 -11 82 -4 100 -7 95 -16 -4
-5 -1 -6 8 0 18 11 39 14 39 5 0 -4 9 -7 20 -8 11 -1 18 2 15 7 -3 6 1 7 9 4
9 -3 13 -11 9 -18 -4 -6 1 -5 10 3 9 7 17 9 17 4 0 -5 16 -9 35 -8 19 1 35 -1
35 -6 0 -4 11 -6 25 -4 14 1 25 -1 25 -5 0 -5 11 -7 25 -5 14 1 25 -2 25 -7 0
-5 4 -7 8 -4 9 6 74 -24 84 -39 5 -6 8 -6 8 3 0 7 14 0 32 -15 52 -45 78 -75
78 -89 0 -8 5 -14 11 -14 5 0 8 -4 4 -9 -3 -5 0 -13 6 -16 5 -4 8 -13 5 -21
-3 -8 -2 -14 2 -14 5 0 9 -19 11 -42 7 -107 6 -128 -7 -133 -9 -3 -10 -10 -4
-21 6 -11 1 -32 -16 -68 -14 -28 -30 -54 -35 -57 -5 -3 -8 -9 -8 -13 3 -20 0
-26 -9 -21 -5 3 -10 1 -10 -5 0 -17 -77 -90 -95 -90 -9 0 -13 -4 -10 -10 3 -5
1 -11 -4 -11 -32 -4 -36 -6 -34 -15 1 -6 -3 -11 -10 -12 -10 -1 -42 -8 -54
-11 -2 -1 -6 -1 -9 0 -4 0 -11 -5 -15 -13 -7 -11 -11 -10 -19 2 -8 12 -10 12
-10 1 0 -8 -7 -11 -20 -8 -11 3 -20 1 -20 -4 0 -6 -9 -5 -21 2 -17 9 -20 8
-14 -1 6 -10 1 -11 -19 -6 -16 4 -26 2 -26 -5 0 -6 -7 -3 -16 5 -18 19 -28 21
-18 5 5 -9 -1 -10 -20 -5 -16 4 -26 2 -26 -5 0 -6 -7 -3 -16 5 -18 19 -28 21
-18 5 5 -9 -1 -10 -20 -5 -16 4 -26 2 -26 -5 0 -6 -7 -3 -16 5 -18 19 -28 21
-18 5 5 -9 -1 -10 -20 -5 -16 4 -26 2 -26 -5 0 -6 -7 -3 -16 5 -18 19 -28 21
-18 5 5 -9 -1 -10 -20 -5 -16 4 -26 2 -26 -5 0 -6 -7 -3 -16 5 -17 18 -28 21
-19 6 3 -6 -3 -10 -15 -10 -14 0 -19 4 -14 13 4 6 -2 4 -13 -6 -11 -9 -23 -14
-27 -10 -4 5 -12 9 -17 9 -5 1 -13 2 -17 3 -4 0 -8 10 -9 21 -1 13 2 18 9 14
7 -5 8 -2 2 7 -13 22 -14 82 -1 98 10 12 9 13 -7 7 -19 -7 -19 -6 -2 13 10 11
13 22 8 25 -6 3 -10 26 -9 50 0 27 5 43 10 39 6 -4 7 -1 1 8 -13 22 -14 82 -1
98 10 12 9 13 -7 7 -19 -7 -19 -6 -2 13 11 12 13 21 7 25 -6 4 -10 22 -9 41 1
22 5 32 12 28 7 -4 7 -2 -1 8 -13 17 -13 100 0 92 6 -4 7 -1 1 8 -13 22 -14
82 -1 98 10 12 9 13 -7 7 -19 -6 -19 -6 -3 12 9 10 14 22 10 26 -12 12 -10
110 2 118 6 5 6 8 -2 8 -7 0 -13 7 -13 15 0 8 5 15 10 15 6 0 10 -5 10 -11z"/>
</g>
</svg>
